<svg width="74" height="76" viewBox="0 0 74 76" fill="none" xmlns="http://www.w3.org/2000/svg">
<rect x="0.5" y="0.5" width="57" height="75" fill="#6E23B6" stroke="white"/>
<rect x="7" y="4" width="44" height="2" fill="white"/>
<rect x="4" y="14" width="50" height="1" fill="white"/>
<rect x="4" y="20" width="10" height="1" fill="white"/>
<rect x="4" y="61" width="50" height="1" fill="white"/>
<rect x="4" y="67" width="32" height="1" fill="white"/>
<rect x="44" y="67" width="10" height="1" fill="white"/>
<rect x="55" y="10" width="6" height="32" fill="white"/>
<rect x="74" y="23" width="6" height="32" transform="rotate(90 74 23)" fill="white"/>
<path d="M14.24 56L26.384 23.936H34.736L46.88 56H38.624L36.704 50.288H24.416L22.496 56H14.24ZM26.48 44.144H34.64L30.512 31.952L26.48 44.144Z" fill="white"/>
<circle cx="3" cy="5" r="1" fill="white"/>
<circle cx="55" cy="5" r="1" fill="white"/>
</svg>
