<svg width="120" height="90" viewBox="0 0 120 90" fill="none" xmlns="http://www.w3.org/2000/svg">
<rect x="6.82812" y="45.2134" width="91.0423" height="20.3904" rx="10.1952" fill="#6E24B6"/>
<ellipse cx="33.6156" cy="45.2137" rx="17.5081" ry="17.7308" fill="#6E24B6"/>
<ellipse cx="51.1234" cy="30.6742" rx="17.5081" ry="17.7308" fill="#6E24B6"/>
<ellipse cx="69.8577" cy="44.327" rx="17.5081" ry="17.7308" fill="#6E24B6"/>
<path d="M99.4469 24.4686C99.4469 34.2611 91.6083 42.1994 81.9388 42.1994C72.2693 42.1994 64.4307 34.2611 64.4307 24.4686C64.4307 14.6762 72.2693 6.73779 81.9388 6.73779C91.6083 6.73779 99.4469 14.6762 99.4469 24.4686ZM71.0846 24.4686C71.0846 30.5395 75.9442 35.4609 81.9388 35.4609C87.9334 35.4609 92.793 30.5395 92.793 24.4686C92.793 18.3977 87.9334 13.4763 81.9388 13.4763C75.9442 13.4763 71.0846 18.3977 71.0846 24.4686Z" fill="#E04090"/>
<rect x="76.3359" width="11.2052" height="11.8796" rx="5" fill="#E04090"/>
<rect x="76.3359" y="36.5254" width="11.2052" height="11.8796" rx="5" fill="#E04090"/>
<rect width="11.2767" height="11.8053" rx="5" transform="matrix(0.702625 0.711561 -0.702625 0.711561 95.8359 3.01416)" fill="#E04090"/>
<rect width="11.2767" height="11.8053" rx="5" transform="matrix(0.702625 0.711561 -0.702625 0.711561 68.3477 30.8516)" fill="#E04090"/>
<rect width="11.2767" height="11.8053" rx="5" transform="matrix(0.702624 -0.711561 0.702624 0.711561 60.4033 10.3291)" fill="#E04090"/>
<rect width="11.2767" height="11.8053" rx="5" transform="matrix(0.702625 -0.711561 0.702625 0.711561 87.085 38.2505)" fill="#E04090"/>
<rect x="105.225" y="20.2129" width="11.3477" height="11.7305" rx="5" transform="rotate(90 105.225 20.2129)" fill="#E04090"/>
<rect x="70.208" y="19.5039" width="11.3477" height="11.7305" rx="5" transform="rotate(90 70.208 19.5039)" fill="#E04090"/>
<rect y="67.3955" width="102.207" height="6.27907" fill="#E04090"/>
<path d="M118.983 70.7082L91.0814 85.9547L92.8425 52.5405L118.983 70.7082Z" fill="#E04090"/>
</svg>
