<svg width="120" height="90" viewBox="0 0 120 90" fill="none" xmlns="http://www.w3.org/2000/svg">
<rect x="3.04785" y="21.8984" width="89.6831" height="68.1014" fill="#411F62"/>
<rect y="16.522" width="89.6831" height="68.1014" fill="#6E24B6"/>
<rect x="6.96582" y="21.8984" width="75.7517" height="2.24018" fill="white"/>
<ellipse cx="3.04708" cy="22.7946" rx="1.74142" ry="1.79214" fill="white"/>
<ellipse cx="86.2004" cy="22.7946" rx="1.74142" ry="1.79214" fill="white"/>
<rect x="5.22461" y="27.2749" width="78.3638" height="51.076" fill="white"/>
<rect x="6.96582" y="29.5151" width="17.4142" height="13.8891" fill="#6E24B6"/>
<rect x="26.1211" y="29.5151" width="17.4142" height="13.8891" fill="#6E24B6"/>
<rect x="45.2773" y="29.5151" width="17.4142" height="13.8891" fill="#6E24B6"/>
<rect x="64.4326" y="29.5151" width="17.4142" height="13.8891" fill="#6E24B6"/>
<rect x="6.96582" y="45.1963" width="17.4142" height="13.8891" fill="#6E24B6"/>
<rect x="26.1211" y="45.1963" width="17.4142" height="13.8891" fill="#6E24B6"/>
<rect x="45.2773" y="45.1963" width="17.4142" height="13.8891" fill="#6E24B6"/>
<rect x="64.4326" y="45.1963" width="17.4142" height="13.8891" fill="#6E24B6"/>
<rect x="7.40137" y="60.8779" width="17.4142" height="13.8891" fill="#6E24B6"/>
<rect x="26.5566" y="60.8779" width="17.4142" height="13.8891" fill="#6E24B6"/>
<rect x="45.7119" y="60.8779" width="17.4142" height="13.8891" fill="#6E24B6"/>
<rect x="64.8682" y="60.8779" width="17.4142" height="13.8891" fill="#6E24B6"/>
<path d="M102.406 0L119.94 3.30512L108.591 38.6766L98.7055 37.0337L102.406 0Z" fill="#E04090"/>
<ellipse cx="102.308" cy="45.9237" rx="6.96567" ry="6.72053" fill="#E04090"/>
</svg>
