<svg width="120" height="101" viewBox="0 0 120 101" fill="none" xmlns="http://www.w3.org/2000/svg">
<rect y="80.9492" width="75.213" height="9.11392" fill="#6E24B6"/>
<rect y="91.8862" width="75.213" height="9.11392" fill="#6E24B6"/>
<rect x="4.625" y="95.7593" width="6.81542" height="1.36709" fill="white"/>
<rect x="13.1436" y="95.7593" width="6.81542" height="1.36709" fill="white"/>
<rect x="21.6631" y="95.7593" width="6.57201" height="1.36709" fill="white"/>
<rect x="29.9395" y="95.7593" width="6.81542" height="1.36709" fill="white"/>
<rect x="54.2803" y="95.7593" width="15.5781" height="1.36709" fill="white"/>
<rect x="4.625" y="84.3672" width="6.81542" height="1.36709" fill="white"/>
<rect x="13.1436" y="84.3672" width="6.81542" height="1.36709" fill="white"/>
<rect x="21.6631" y="84.3672" width="6.57201" height="1.36709" fill="white"/>
<rect x="29.9395" y="84.3672" width="6.81542" height="1.36709" fill="white"/>
<rect x="54.2803" y="84.3672" width="15.5781" height="1.36709" fill="white"/>
<rect y="59.0762" width="75.213" height="9.11392" fill="#6E24B6"/>
<rect y="70.0127" width="75.213" height="9.11392" fill="#6E24B6"/>
<rect x="4.625" y="73.8862" width="6.81542" height="1.36709" fill="white"/>
<rect x="13.1436" y="73.8862" width="6.81542" height="1.36709" fill="white"/>
<rect x="21.6631" y="73.8862" width="6.57201" height="1.36709" fill="white"/>
<rect x="29.9395" y="73.8862" width="6.81542" height="1.36709" fill="white"/>
<rect x="54.2803" y="73.8862" width="15.5781" height="1.36709" fill="white"/>
<rect x="4.625" y="62.4937" width="6.81542" height="1.36709" fill="white"/>
<rect x="13.1436" y="62.4937" width="6.81542" height="1.36709" fill="white"/>
<rect x="21.6631" y="62.4937" width="6.57201" height="1.36709" fill="white"/>
<rect x="29.9395" y="62.4937" width="6.81542" height="1.36709" fill="white"/>
<rect x="54.2803" y="62.4937" width="15.5781" height="1.36709" fill="white"/>
<rect x="29.4521" y="11" width="90.5477" height="46.2532" fill="#6E24B6"/>
<rect x="75.2129" y="56.7974" width="6.57201" height="13.443" fill="#6E24B6"/>
<rect x="73.2656" y="70.2407" width="32.6166" height="4.55696" fill="#6E24B6"/>
<ellipse cx="116.349" cy="54.0634" rx="1.46045" ry="1.36709" fill="white"/>
</svg>
